<svg width="771" height="878" viewBox="0 0 771 878" fill="none" xmlns="http://www.w3.org/2000/svg">
<path d="M389.644 0.139956C390.164 0.163884 390.683 0.187812 391.218 0.212466C399.858 0.677131 406.728 2.97433 414.394 6.88996C414.881 7.13262 415.367 7.37529 415.868 7.62531C423.642 11.5198 431.132 15.9073 438.601 20.3535C442.982 22.9462 447.418 25.2984 451.986 27.543C455.276 29.2151 458.408 31.1153 461.551 33.0462C462.856 33.8391 464.161 34.6311 465.468 35.4222C466.409 35.9927 466.409 35.9927 467.369 36.5746C470.586 38.5052 473.854 40.3422 477.119 42.1898C479.907 43.7908 482.659 45.4443 485.41 47.1087C489.177 49.3839 492.974 51.5684 496.85 53.6536C505.124 58.1127 513.295 62.7208 521.334 67.5902C527.106 71.0838 532.956 74.4289 538.836 77.7371C549.784 83.8995 560.616 90.2468 571.372 96.74C575.54 99.2563 579.739 101.686 584.029 103.992C589.357 106.884 594.672 109.85 599.785 113.109C602.614 114.908 605.542 116.493 608.492 118.083C611.37 119.649 614.227 121.251 617.082 122.859C617.578 123.138 618.074 123.417 618.585 123.705C620.022 124.515 621.458 125.327 622.894 126.14C623.726 126.61 624.557 127.08 625.414 127.564C628.17 129.14 630.886 130.781 633.606 132.419C637.223 134.586 640.863 136.716 644.504 138.843C645.295 139.306 646.086 139.768 646.902 140.245C651.698 143.038 656.527 145.721 661.437 148.306C663.908 149.675 666.201 151.245 668.524 152.847C670.206 153.929 671.906 154.804 673.707 155.671C677.635 157.565 681.271 159.842 684.966 162.152C688.452 164.288 692.039 166.213 695.644 168.14C699.769 170.386 703.815 172.734 707.835 175.162C710.037 176.475 712.259 177.748 714.488 179.015C719.52 181.878 724.53 184.777 729.535 187.687C730.283 188.12 731.031 188.553 731.801 188.999C745.957 197.242 745.957 197.242 750.394 201.14C750.394 201.635 750.394 202.13 750.394 202.64C750.822 202.81 751.249 202.98 751.689 203.156C760.704 208.36 765.394 220.652 767.967 230.215C769.356 235.662 770.115 240.823 770.083 246.445C770.085 247.116 770.087 247.788 770.09 248.48C770.095 250.719 770.09 252.958 770.085 255.198C770.086 256.824 770.089 258.45 770.092 260.077C770.098 264.537 770.095 268.998 770.09 273.459C770.087 278.273 770.092 283.087 770.096 287.901C770.103 296.784 770.102 305.668 770.098 314.551C770.094 322.76 770.093 330.969 770.095 339.178C770.095 339.996 770.095 339.996 770.095 340.83C770.096 343.042 770.096 345.254 770.097 347.465C770.101 368.212 770.097 388.958 770.089 409.704C770.082 428.123 770.083 446.542 770.09 464.961C770.098 485.665 770.101 506.369 770.096 527.074C770.096 529.282 770.095 531.491 770.095 533.7C770.095 534.244 770.095 534.788 770.095 535.348C770.093 543.548 770.095 551.749 770.099 559.949C770.103 569.279 770.102 578.609 770.094 587.939C770.09 592.697 770.088 597.456 770.093 602.215C770.098 606.574 770.095 610.934 770.087 615.294C770.086 616.868 770.086 618.441 770.09 620.015C770.131 639.299 767.405 656.659 753.564 671.217C752.738 672.045 752.738 672.045 751.894 672.89C751.451 673.341 751.009 673.793 750.552 674.258C746.041 678.521 740.608 681.553 735.33 684.76C733.377 685.957 731.456 687.205 729.535 688.452C727.01 690.065 724.46 691.562 721.818 692.976C717.394 695.372 713.057 697.9 708.722 700.452C703.245 703.667 697.748 706.828 692.176 709.874C687.648 712.351 683.296 715.007 678.986 717.844C669.731 723.89 669.731 723.89 666.394 723.89C668.916 726.687 671.737 728.476 674.926 730.406C676.011 731.073 677.096 731.741 678.18 732.409C678.994 732.909 678.994 732.909 679.824 733.419C682.099 734.825 684.35 736.267 686.597 737.718C687.018 737.989 687.439 738.261 687.873 738.54C689.214 739.406 690.554 740.273 691.894 741.14C692.398 741.466 692.902 741.792 693.421 742.128C695.58 743.524 697.739 744.921 699.897 746.319C706.417 750.539 712.944 754.748 719.504 758.906C721.984 760.478 724.433 762.084 726.863 763.734C729.003 765.172 731.161 766.486 733.426 767.718C742.367 772.601 750.733 778.57 759.179 784.249C760.236 784.952 761.299 785.646 762.372 786.323C763.403 786.977 764.403 787.678 765.394 788.39C765.394 788.885 765.394 789.38 765.394 789.89C766.137 790.137 766.879 790.385 767.644 790.64C770.109 794.337 770.171 798.27 769.894 802.64C768.591 806.684 767.065 810.436 763.549 812.97C760.433 814.475 757.786 814.789 754.332 814.874C753.593 814.902 752.855 814.93 752.093 814.959C746.803 814.269 742.381 810.933 738.019 808.031C732.69 804.533 727.307 801.131 721.894 797.765C716.568 794.45 711.261 791.111 706.004 787.687C701.659 784.858 697.279 782.1 692.855 779.396C681.652 772.541 670.58 765.473 659.676 758.15C659.079 757.749 658.482 757.348 657.867 756.935C656.751 756.184 655.637 755.431 654.525 754.674C651.923 752.92 649.309 751.288 646.551 749.788C643.017 747.862 639.715 745.661 636.394 743.39C635.331 742.674 634.268 741.959 633.204 741.245C632.678 740.892 632.153 740.54 631.611 740.176C626.251 736.584 620.853 733.074 615.367 729.676C611.77 727.446 608.208 725.166 604.66 722.859C600.182 719.947 595.681 717.077 591.16 714.234C585.436 710.633 579.758 706.968 574.093 703.275C570.283 700.791 566.462 698.327 562.619 695.894C560.204 694.361 557.799 692.813 555.394 691.265C552.322 689.287 549.246 687.316 546.16 685.359C543.224 683.495 540.302 681.609 537.385 679.715C531.115 675.644 524.798 671.657 518.451 667.705C514.24 665.077 510.06 662.399 505.897 659.695C504.803 658.984 503.708 658.273 502.613 657.562C502.063 657.205 501.513 656.848 500.947 656.48C497.716 654.388 494.464 652.343 491.176 650.343C487.792 648.278 484.479 646.135 481.191 643.921C472.208 637.88 463.04 632.12 453.848 626.402C453.053 625.906 452.257 625.411 451.437 624.901C449.915 623.954 448.391 623.01 446.866 622.068C442.795 619.54 438.845 616.901 434.936 614.13C432.177 612.22 429.319 610.49 426.441 608.765C425.261 608.051 424.081 607.336 422.902 606.62C422.341 606.281 421.781 605.941 421.203 605.591C417.9 603.576 414.649 601.481 411.394 599.39C410.113 598.577 408.832 597.765 407.551 596.952C405.016 595.342 402.491 593.718 399.974 592.08C399.135 591.535 399.135 591.535 398.278 590.978C397.175 590.26 396.072 589.541 394.97 588.82C392.512 587.222 390.049 585.671 387.494 584.232C385.144 582.89 385.144 582.89 383.363 581.437C381.612 580.061 380.035 579.162 378.066 578.156C374.233 576.095 371.352 573.305 369.394 569.39C368.696 560.455 368.696 560.455 370.566 556.265C378.423 548.207 378.423 548.207 383.738 548.109C391.914 548.374 398.612 553.53 405.245 557.825C407.098 559.022 408.959 560.206 410.82 561.389C415.345 564.266 419.862 567.155 424.379 570.046C425.208 570.577 426.038 571.108 426.892 571.654C433.779 576.062 433.779 576.062 436.812 578.024C446.936 584.569 457.162 590.961 467.457 597.234C473.468 600.919 479.352 604.804 485.255 608.659C488.176 610.562 491.106 612.452 494.035 614.343C497.751 616.742 501.453 619.154 505.103 621.653C506.847 622.77 508.647 623.774 510.449 624.795C513.02 626.298 515.497 627.946 517.988 629.577C519.112 630.304 520.236 631.031 521.36 631.757C523.412 633.085 525.452 634.428 527.483 635.788C528.333 636.344 529.184 636.898 530.035 637.452C530.773 637.944 531.51 638.435 532.27 638.941C534.929 640.129 536.09 639.814 538.894 639.14C540.927 638.207 540.927 638.207 542.902 636.981C543.646 636.54 544.39 636.1 545.156 635.646C545.936 635.174 546.716 634.703 547.519 634.218C549.145 633.252 550.771 632.286 552.397 631.321C553.177 630.855 553.956 630.389 554.759 629.91C557.313 628.391 559.887 626.916 562.472 625.452C568.904 621.793 575.269 618.022 581.639 614.256C591.06 608.688 600.538 603.22 610.021 597.757C613.548 595.725 617.073 593.692 620.597 591.656C621.183 591.318 621.768 590.981 622.371 590.633C622.906 590.324 623.441 590.014 623.993 589.696C624.685 589.296 624.685 589.296 625.39 588.889C626.582 588.177 627.739 587.41 628.894 586.64C629.637 586.64 630.379 586.64 631.144 586.64C631.186 548.785 631.196 510.93 631.164 473.075C631.16 468.608 631.157 464.141 631.153 459.675C631.152 458.341 631.152 458.341 631.151 456.98C631.141 442.571 631.152 428.163 631.171 413.755C631.19 398.976 631.186 384.197 631.161 369.418C631.146 360.295 631.149 351.172 631.174 342.049C631.19 335.797 631.184 329.545 631.161 323.294C631.148 319.684 631.145 316.075 631.168 312.465C631.188 309.161 631.182 305.859 631.153 302.555C631.147 301.359 631.152 300.163 631.168 298.966C631.457 292.729 631.457 292.729 629.088 287.214C627.565 286.047 626.127 285.203 624.394 284.39C623.646 283.92 622.897 283.45 622.125 282.965C621.421 282.565 620.717 282.165 619.991 281.753C618.798 281.071 618.798 281.071 617.581 280.375C616.751 279.906 615.921 279.436 615.066 278.952C613.753 278.204 612.441 277.453 611.129 276.703C609.84 275.966 608.55 275.23 607.259 274.494C604.191 272.738 601.141 270.953 598.097 269.156C597.345 268.712 597.345 268.712 596.578 268.259C594.594 267.089 592.611 265.916 590.629 264.743C583.776 260.69 576.893 256.698 569.977 252.755C546.856 239.571 546.856 239.571 538.379 234.421C533.06 231.192 527.638 228.149 522.216 225.098C512.657 219.716 503.176 214.201 493.726 208.63C485.273 203.648 476.79 198.72 468.312 193.781C464.511 191.566 460.715 189.345 456.93 187.105C451.724 184.026 446.484 181.022 441.199 178.082C438.081 176.338 435.041 174.502 432.019 172.593C427.931 170.034 423.733 167.854 419.376 165.797C416.392 164.365 413.774 162.733 411.113 160.765C409.442 159.565 407.681 158.601 405.863 157.64C405.155 157.262 404.448 156.884 403.718 156.494C403.034 156.13 402.35 155.765 401.644 155.39C400.486 154.752 399.33 154.112 398.176 153.468C397.636 153.168 397.097 152.869 396.541 152.56C395.394 151.919 394.25 151.274 393.107 150.626C392.521 150.296 391.935 149.965 391.332 149.624C390.81 149.328 390.288 149.031 389.75 148.725C387.15 147.371 387.15 147.371 384.394 146.39C382.692 146.869 382.692 146.869 381.019 147.984C380.302 148.407 379.585 148.831 378.845 149.267C378.429 149.519 378.013 149.771 377.584 150.031C375.92 151.024 374.238 151.98 372.552 152.935C366.324 156.461 360.127 160.034 353.972 163.687C348.665 166.835 343.273 169.815 337.858 172.772C334.253 174.744 330.693 176.759 327.189 178.907C324.235 180.688 321.243 182.402 318.254 184.124C313.982 186.589 309.725 189.073 305.504 191.624C300.514 194.637 295.489 197.589 290.457 200.531C289.711 200.967 288.966 201.404 288.197 201.854C283.902 204.36 279.576 206.785 275.182 209.115C273.468 210.098 271.973 211.206 270.394 212.39C269.162 213.097 267.917 213.781 266.662 214.447C262.008 216.95 257.434 219.582 252.863 222.234C251.138 223.232 249.412 224.23 247.686 225.228C246.41 225.966 246.41 225.966 245.109 226.718C241.559 228.766 238.001 230.798 234.441 232.827C223.367 239.146 212.349 245.559 201.338 251.986C192.596 257.088 183.847 262.179 175.051 267.187C169.648 270.27 164.282 273.413 158.93 276.584C156.974 277.741 155.012 278.89 153.052 280.039C151.681 280.849 150.311 281.658 148.941 282.468C148.288 282.849 147.635 283.23 146.962 283.623C146.355 283.983 145.749 284.344 145.124 284.715C144.584 285.033 144.045 285.35 143.489 285.677C141.931 286.673 141.931 286.673 140.644 288.89C140.402 291.15 140.402 291.15 140.42 293.78C140.414 294.281 140.408 294.783 140.402 295.299C140.383 296.991 140.376 298.683 140.368 300.375C140.357 301.596 140.346 302.816 140.334 304.037C140.303 307.401 140.281 310.765 140.261 314.128C140.243 317.011 140.22 319.894 140.196 322.777C139.973 350.111 139.868 377.446 139.783 404.78C139.772 408.339 139.76 411.898 139.748 415.457C139.745 416.342 139.743 417.227 139.74 418.138C139.691 432.464 139.588 446.788 139.464 461.114C139.337 475.82 139.264 490.525 139.243 505.232C139.229 513.49 139.191 521.746 139.092 530.004C139.007 537.038 138.971 544.07 138.998 551.105C139.01 554.694 138.999 558.279 138.925 561.867C138.03 575.411 138.03 575.411 142.001 587.886C145.217 590.992 148.784 592.745 152.975 594.197C157.707 595.905 162.212 598.414 166.478 601.066C167.517 601.706 167.517 601.706 168.577 602.36C169.647 603.024 169.647 603.024 170.738 603.702C176.221 607.076 181.724 610.374 187.354 613.494C190.974 615.503 194.549 617.579 198.113 619.687C204.252 623.315 210.436 626.862 216.64 630.379C225.097 635.176 233.489 640.064 241.815 645.084C251.389 650.856 260.995 656.558 270.792 661.945C275.053 664.294 279.251 666.737 283.435 669.219C287.748 671.773 292.098 674.258 296.457 676.734C301.554 679.634 306.594 682.594 311.571 685.696C318.197 689.815 324.91 693.78 331.697 697.629C334.868 699.432 338.004 701.288 341.129 703.171C349.829 708.416 358.58 713.573 367.426 718.57C369.466 719.734 371.472 720.947 373.472 722.179C374.041 722.525 374.609 722.871 375.195 723.228C376.302 723.903 377.404 724.586 378.5 725.279C381.561 727.136 383.73 728.348 387.394 727.64C389.804 726.572 392.029 725.249 394.285 723.89C394.963 723.492 395.64 723.094 396.338 722.685C398.613 721.346 400.878 719.993 403.144 718.64C404.823 717.646 406.501 716.653 408.18 715.66C410.78 714.123 413.378 712.585 415.974 711.041C420.962 708.076 425.961 705.133 430.988 702.234C442.589 695.547 442.589 695.547 454.059 688.64C454.668 688.265 455.277 687.89 455.905 687.503C457.076 686.78 458.246 686.053 459.413 685.324C465.51 681.551 470.134 680.431 477.394 681.14C481.592 682.389 484.792 685.79 487.144 689.39C488.531 693.458 488.671 698.473 487.223 702.512C486.512 703.923 485.711 705.287 484.894 706.64C484.399 706.64 483.904 706.64 483.394 706.64C483.394 707.135 483.394 707.63 483.394 708.14C482.265 708.96 482.265 708.96 480.673 709.854C480.087 710.187 479.502 710.519 478.899 710.862C478.263 711.217 477.628 711.571 476.972 711.937C475.656 712.684 474.339 713.432 473.023 714.181C472.365 714.554 471.707 714.927 471.03 715.311C468.423 716.803 465.852 718.348 463.285 719.906C458.86 722.582 454.387 725.161 449.882 727.699C448.109 728.725 446.384 729.773 444.658 730.871C440.618 733.415 436.429 735.689 432.254 737.999C425.695 741.65 419.246 745.391 412.894 749.39C390.352 763.514 390.352 763.514 379.894 761.39C375.627 759.825 371.81 757.678 367.894 755.39C367.203 754.992 366.511 754.594 365.799 754.184C361.923 751.953 358.061 749.699 354.21 747.424C350.783 745.403 347.33 743.439 343.847 741.515C338.049 738.299 332.405 734.835 326.76 731.359C322.527 728.758 318.256 726.269 313.894 723.89C307.529 720.368 301.239 716.773 295.065 712.921C290.295 709.982 285.425 707.206 280.576 704.398C276.811 702.214 273.08 699.995 269.4 697.669C267.783 696.666 266.124 695.762 264.441 694.874C260.321 692.653 256.293 690.293 252.264 687.91C248.166 685.487 244.05 683.096 239.926 680.718C235.714 678.288 231.523 675.83 227.363 673.312C223.03 670.689 218.644 668.169 214.238 665.671C207.334 661.755 200.521 657.698 193.736 653.579C189.469 650.996 185.164 648.529 180.774 646.162C178.189 644.756 175.657 643.27 173.129 641.765C172.035 641.118 170.941 640.472 169.847 639.825C169.261 639.479 168.674 639.132 168.069 638.774C164.387 636.604 160.695 634.45 157.004 632.296C155.832 631.612 155.832 631.612 154.638 630.915C150.721 628.631 146.796 626.368 142.847 624.14C138.079 621.426 133.383 618.594 128.691 615.749C127.953 615.303 127.215 614.857 126.454 614.397C115.166 607.522 115.166 607.522 112.66 603.562C112.307 603.021 111.954 602.481 111.591 601.924C109.53 598.04 108.957 594.637 108.956 590.262C108.953 589.735 108.951 589.209 108.949 588.666C108.943 586.901 108.949 585.136 108.954 583.372C108.952 582.093 108.95 580.815 108.947 579.537C108.94 576.024 108.944 572.512 108.948 568.999C108.952 565.21 108.946 561.422 108.942 557.634C108.936 550.211 108.937 542.788 108.941 535.365C108.945 529.33 108.945 523.295 108.944 517.261C108.943 516.402 108.943 515.544 108.943 514.659C108.942 512.915 108.942 511.171 108.941 509.427C108.937 493.063 108.942 476.7 108.95 460.336C108.957 446.301 108.956 432.266 108.949 418.232C108.941 401.934 108.938 385.636 108.942 369.338C108.943 367.599 108.943 365.86 108.944 364.121C108.944 362.838 108.944 362.838 108.944 361.528C108.946 355.505 108.943 349.481 108.94 343.457C108.936 336.111 108.937 328.764 108.945 321.418C108.949 317.671 108.95 313.924 108.945 310.177C108.941 306.744 108.943 303.31 108.951 299.876C108.953 298.637 108.952 297.399 108.948 296.16C108.889 274.418 108.889 274.418 115.824 267.139C119.833 263.575 123.936 260.735 128.597 258.093C129.299 257.687 130 257.281 130.723 256.862C133.026 255.53 135.335 254.21 137.644 252.89C140.188 251.427 142.73 249.962 145.272 248.497C146.96 247.524 148.648 246.553 150.337 245.582C155.162 242.804 159.945 239.987 164.641 236.996C166.646 235.79 168.669 234.665 170.726 233.551C175.209 231.123 179.608 228.566 184.004 225.984C193.631 220.347 193.631 220.347 198.394 217.64C203.968 214.471 209.499 211.229 215.034 207.993C219.038 205.654 223.048 203.331 227.082 201.046C231.982 198.263 236.806 195.358 241.621 192.43C245.473 190.099 249.38 187.909 253.34 185.769C256.636 183.958 259.855 182.024 263.082 180.093C268.824 176.678 274.6 173.334 280.426 170.062C288.677 165.425 296.852 160.663 305.02 155.881C308.285 153.973 311.558 152.079 314.832 150.187C319.365 147.566 323.894 144.937 328.414 142.291C329.915 141.419 331.422 140.556 332.931 139.699C335.18 138.416 337.398 137.088 339.61 135.743C343.672 133.274 347.752 130.894 351.957 128.671C355.037 127.042 357.99 125.322 360.91 123.421C370.132 117.434 379.204 113.043 390.394 114.14C393.579 115.061 396.446 116.384 399.394 117.89C400.063 118.224 400.732 118.559 401.422 118.904C405.911 121.253 410.119 123.973 414.348 126.752C417.262 128.644 420.145 130.122 423.35 131.434C425.667 132.493 427.678 133.925 429.772 135.366C435.146 139.024 440.652 142.339 446.504 145.171C450.402 147.071 454.054 149.165 457.707 151.499C463.503 155.2 469.461 158.533 475.489 161.839C484.547 166.833 493.565 171.886 502.332 177.377C504.956 178.984 507.652 180.431 510.362 181.886C513.137 183.411 515.869 185.002 518.597 186.609C519.132 186.924 519.667 187.238 520.217 187.563C523.234 189.346 526.237 191.148 529.232 192.966C535.173 196.569 541.057 200.076 547.326 203.088C550.474 204.689 553.423 206.581 556.414 208.455C559.487 210.369 562.617 212.177 565.754 213.984C571.36 217.213 576.951 220.466 582.535 223.734C587.635 226.717 592.748 229.671 597.91 232.546C602.238 234.958 606.472 237.493 610.68 240.111C613.396 241.796 616.125 243.459 618.863 245.109C619.293 245.37 619.723 245.631 620.165 245.9C622.831 247.504 625.534 249.02 628.27 250.502C632.95 253.043 637.568 255.679 642.16 258.374C642.967 258.834 643.773 259.294 644.605 259.767C650.254 263.099 656.285 266.939 658.144 273.562C658.144 274.165 658.144 274.768 658.144 275.39C658.639 275.39 659.134 275.39 659.644 275.39C662.038 283.691 661.257 293.195 661.26 301.776C661.263 303.048 661.266 304.32 661.27 305.592C661.279 309.06 661.283 312.528 661.286 315.996C661.291 319.746 661.299 323.497 661.308 327.247C661.326 336.284 661.337 345.321 661.347 354.358C661.349 356.911 661.352 359.465 661.355 362.019C661.374 377.893 661.391 393.768 661.4 409.643C661.402 413.311 661.405 416.98 661.407 420.648C661.407 421.56 661.408 422.472 661.409 423.411C661.418 438.202 661.443 452.994 661.474 467.785C661.506 482.984 661.524 498.184 661.528 513.384C661.53 521.913 661.539 530.441 661.564 538.97C661.585 546.227 661.593 553.484 661.585 560.741C661.581 564.442 661.583 568.143 661.601 571.844C661.618 575.234 661.618 578.624 661.604 582.014C661.601 583.238 661.606 584.463 661.617 585.687C661.687 593.837 660.605 599.797 655.566 606.442C653.531 608.505 651.702 609.711 649.144 611.062C644.36 613.658 639.74 616.469 635.129 619.359C630.549 622.218 625.972 624.985 621.192 627.5C617.952 629.304 614.835 631.304 611.715 633.307C608.955 635.065 606.158 636.697 603.277 638.249C598.356 640.903 593.566 643.768 588.769 646.64C583.303 649.913 577.829 653.141 572.209 656.147C568.475 657.916 568.475 657.916 565.894 660.89C566.443 661.092 566.992 661.295 567.557 661.504C569.579 662.362 571.223 663.335 573.034 664.57C573.99 665.216 573.99 665.216 574.965 665.874C575.974 666.563 575.974 666.563 577.004 667.265C584.538 672.346 592.185 677.196 599.931 681.946C604.506 684.751 609.047 687.599 613.554 690.511C618.404 693.641 623.289 696.718 628.211 699.733C629.217 700.37 630.205 701.036 631.177 701.722C631.686 702.073 632.196 702.423 632.72 702.784C633.174 703.109 633.627 703.434 634.093 703.768C636.357 704.676 637.81 704.255 640.144 703.64C642.177 702.707 642.177 702.707 644.152 701.481C645.268 700.82 645.268 700.82 646.407 700.145C647.186 699.674 647.966 699.203 648.769 698.718C650.393 697.753 652.017 696.788 653.641 695.824C654.42 695.358 655.2 694.893 656.002 694.413C658.589 692.876 661.197 691.385 663.816 689.906C667.222 687.969 670.589 685.98 673.941 683.952C682.543 678.757 691.298 673.821 700.065 668.911C723.475 656.993 723.475 656.993 737.686 636.046C738.493 632.736 738.605 629.782 738.589 626.393C738.592 625.728 738.595 625.062 738.598 624.376C738.606 622.143 738.603 619.911 738.6 617.678C738.603 616.062 738.607 614.446 738.612 612.83C738.622 608.387 738.624 603.944 738.623 599.501C738.625 594.71 738.634 589.919 738.643 585.127C738.659 575.196 738.666 565.264 738.669 555.333C738.669 554.793 738.67 554.253 738.67 553.697C738.67 552.886 738.67 552.886 738.67 552.059C738.673 546.064 738.678 540.069 738.683 534.074C738.697 515.965 738.71 497.855 738.712 479.746C738.712 479.167 738.712 478.588 738.712 477.991C738.712 475.644 738.713 473.297 738.713 470.95C738.713 469.184 738.713 467.417 738.713 465.651C738.714 464.775 738.714 464.775 738.714 463.882C738.716 445.544 738.732 427.206 738.76 408.868C738.79 388.262 738.808 367.657 738.808 347.051C738.808 344.854 738.808 342.656 738.809 340.458C738.809 339.917 738.809 339.375 738.809 338.818C738.809 330.115 738.822 321.411 738.84 312.708C738.857 303.958 738.86 295.209 738.849 286.459C738.844 281.72 738.844 276.981 738.862 272.243C738.877 267.903 738.875 263.563 738.859 259.223C738.857 257.655 738.86 256.086 738.871 254.518C738.941 243.642 738.052 234.159 730.144 225.89C726.418 222.483 722.707 219.864 718.181 217.67C715.749 216.435 713.494 214.95 711.207 213.468C706.042 210.181 700.751 207.195 695.373 204.273C689.24 200.937 683.203 197.447 677.173 193.928C666.862 187.913 656.506 181.985 646.074 176.182C640.479 173.062 634.981 169.845 629.542 166.458C627.268 165.062 624.958 163.768 622.616 162.492C619.855 160.949 617.134 159.341 614.41 157.734C613.855 157.406 613.299 157.079 612.727 156.742C611.116 155.791 609.505 154.841 607.894 153.89C603.677 151.403 599.463 148.931 595.144 146.624C587.824 142.671 580.765 138.236 573.647 133.933C570.531 132.054 567.418 130.196 564.207 128.484C560.538 126.504 556.916 124.448 553.303 122.368C549.889 120.406 546.434 118.534 542.946 116.706C541.144 115.64 541.144 115.64 539.319 114.149C537.256 112.532 535.271 111.535 532.894 110.437C528.015 108.104 523.457 105.342 518.879 102.468C514.316 99.6049 509.776 96.7822 505.012 94.262C496.964 89.9987 489.054 85.4656 481.144 80.9525C480.509 80.5903 479.873 80.2281 479.218 79.8549C476.019 78.0247 472.842 76.1651 469.686 74.261C467.149 72.7314 464.595 71.2692 461.972 69.89C459.4 68.5066 456.966 67.0534 454.566 65.39C452.074 63.6815 449.55 62.302 446.832 60.9837C442.833 59.0368 439.119 56.8066 435.356 54.4417C431.562 52.0979 427.659 49.9448 423.769 47.765C418.98 45.0802 414.224 42.3757 409.566 39.4681C399.247 33.0474 389.154 30.0096 376.894 31.64C373.136 32.5673 369.781 34.2966 366.394 36.14C365.689 36.4996 364.985 36.8593 364.259 37.2298C360.603 39.1442 357.099 41.2726 353.597 43.4525C349.241 46.1618 344.798 48.6718 340.305 51.1467C323.511 60.4045 306.971 70.1321 290.46 79.8846C289.323 80.5562 288.186 81.2276 287.048 81.8986C285.989 82.5234 284.93 83.149 283.872 83.7754C280.738 85.6233 277.576 87.4104 274.392 89.1704C271.344 90.8615 268.314 92.5851 265.285 94.3118C264.269 94.8906 264.269 94.8906 263.233 95.4811C257.799 98.5913 252.44 101.815 247.089 105.065C243.002 107.529 238.893 109.755 234.555 111.752C232.895 112.64 231.95 113.56 230.644 114.89C229.494 115.584 228.318 116.236 227.129 116.859C223.603 118.738 220.107 120.66 216.629 122.624C215.594 123.208 214.558 123.792 213.523 124.376C213.005 124.669 212.486 124.962 211.951 125.263C210.438 126.115 208.922 126.963 207.406 127.81C200.64 131.591 193.943 135.479 187.273 139.427C185.607 140.412 183.938 141.393 182.269 142.373C181.716 142.698 181.163 143.023 180.593 143.358C179.503 143.998 178.412 144.638 177.321 145.278C173.919 147.279 170.533 149.305 167.173 151.376C165.718 152.205 164.225 152.964 162.722 153.702C158.64 155.723 154.74 158.049 150.816 160.359C150.018 160.826 149.22 161.293 148.398 161.775C144.924 163.811 141.455 165.852 137.99 167.903C132.115 171.378 126.204 174.779 120.254 178.124C113.786 181.761 107.378 185.489 101 189.281C96.2882 192.078 91.548 194.821 86.7849 197.531C78.1367 202.45 69.5448 207.462 61.0388 212.624C59.1987 213.71 57.3467 214.765 55.4841 215.812C54.8595 216.166 54.2348 216.52 53.5912 216.884C52.3496 217.587 51.1049 218.284 49.8566 218.974C41.4248 223.761 35.7359 229.351 32.6443 238.64C31.7656 242.053 31.7873 245.427 31.7936 248.927C31.7919 249.588 31.7901 250.249 31.7883 250.93C31.7833 253.157 31.7836 255.383 31.7839 257.61C31.7814 259.218 31.7786 260.826 31.7755 262.434C31.768 266.862 31.7652 271.29 31.7633 275.717C31.7603 280.49 31.7532 285.262 31.7466 290.034C31.7325 301.018 31.7248 312.002 31.7185 322.986C31.7154 328.415 31.7114 333.845 31.7075 339.274C31.6941 357.861 31.6828 376.448 31.6773 395.035C31.6769 396.202 31.6765 397.369 31.6762 398.536C31.676 399.114 31.6758 399.693 31.6756 400.289C31.6747 403.221 31.6738 406.152 31.6729 409.084C31.6727 409.665 31.6726 410.247 31.6724 410.847C31.6664 429.705 31.6489 448.564 31.6245 467.423C31.5988 487.366 31.584 507.308 31.5815 527.25C31.5812 529.441 31.5808 531.631 31.5804 533.821C31.5804 534.36 31.5803 534.899 31.5802 535.455C31.5784 544.126 31.5667 552.797 31.5513 561.468C31.5361 570.188 31.5323 578.908 31.5392 587.627C31.5426 592.35 31.5411 597.072 31.5266 601.794C31.5134 606.12 31.5141 610.445 31.5257 614.771C31.5275 616.333 31.5243 617.895 31.5154 619.457C31.4585 630.108 31.5403 640.089 38.9695 648.544C46.2984 655.572 55.0167 660.415 63.8982 665.189C66.8229 666.782 69.7025 668.451 72.5818 670.124C73.1605 670.46 73.7392 670.795 74.3354 671.141C77.6505 673.069 80.9538 675.015 84.2507 676.974C84.9848 677.41 85.7188 677.845 86.4751 678.294C87.8928 679.137 89.3094 679.982 90.7246 680.829C93.5876 682.532 96.4367 684.198 99.4324 685.658C102.925 687.36 106.206 689.382 109.519 691.406C115.035 694.745 120.592 697.98 126.224 701.117C130.064 703.257 133.877 705.441 137.691 707.624C138.352 708.002 139.013 708.38 139.693 708.77C140.944 709.486 142.195 710.201 143.445 710.917C144.949 711.778 146.454 712.637 147.96 713.495C150.248 714.806 152.526 716.133 154.801 717.468C157.394 718.984 159.992 720.481 162.629 721.921C166.151 723.858 169.583 725.939 173.012 728.035C175.753 729.698 178.53 731.27 181.349 732.796C185.65 735.125 189.868 737.581 194.082 740.062C200.254 743.681 206.453 747.245 212.691 750.749C218.773 754.169 224.784 757.682 230.75 761.299C237.367 765.291 244.021 769.21 250.83 772.866C255.868 775.639 260.819 778.568 265.79 781.46C267.172 782.261 268.56 783.053 269.949 783.843C274.273 786.307 278.536 788.877 282.81 791.425C288.386 794.733 294.047 797.855 299.767 800.906C303.558 802.927 307.133 805.1 310.677 807.524C313.146 809.129 315.733 810.48 318.33 811.866C321.02 813.347 323.644 814.922 326.269 816.515C330.151 818.866 334.067 821.111 338.064 823.262C343.531 826.226 348.917 829.329 354.227 832.564C360.194 836.197 366.143 839.779 372.394 842.906C372.883 843.151 373.372 843.396 373.876 843.648C380.225 846.747 386.896 847.295 393.676 845.015C397.944 843.281 401.893 840.982 405.848 838.64C408.004 837.37 410.173 836.162 412.379 834.984C416.403 832.804 420.34 830.487 424.278 828.158C428.345 825.753 432.428 823.377 436.519 821.015C445.662 815.731 454.764 810.382 463.807 804.928C466.81 803.123 469.845 801.397 472.921 799.719C474.414 798.879 475.856 797.983 477.301 797.062C479.511 795.659 481.759 794.378 484.065 793.139C489.088 790.413 494.046 787.577 499.004 784.734C499.889 784.227 500.774 783.72 501.659 783.213C502.985 782.454 504.311 781.695 505.637 780.935C507.913 779.63 510.191 778.328 512.472 777.031C512.937 776.767 513.401 776.502 513.88 776.23C515.164 775.499 516.448 774.77 517.732 774.04C520.975 772.158 524.153 770.181 527.325 768.181C529.443 766.91 531.573 765.715 533.744 764.539C538.312 762.066 542.802 759.467 547.285 756.843C548.056 756.394 548.827 755.945 549.621 755.482C553.431 753.257 557.215 751.007 560.928 748.623C564.86 746.252 568.917 745.889 573.394 746.39C578.109 747.908 581.614 750.298 584.551 754.312C586.124 759.121 586.308 764.46 584.269 769.171C581.073 774.528 575.181 777.163 569.909 780.113C567.087 781.693 564.343 783.347 561.629 785.109C558.448 787.162 555.206 789 551.87 790.786C548.563 792.595 545.298 794.473 542.035 796.359C541.425 796.709 540.816 797.06 540.188 797.421C537.684 798.871 535.234 800.329 532.839 801.954C531.174 803.043 529.635 803.922 527.861 804.785C524.003 806.663 520.355 808.875 516.676 811.077C515.213 811.947 513.75 812.816 512.287 813.685C511.226 814.315 511.226 814.315 510.145 814.957C507.489 816.527 504.822 818.077 502.144 819.609C501.371 820.052 500.597 820.494 499.801 820.951C498.358 821.746 496.896 822.508 495.418 823.236C492.94 824.493 490.621 825.912 488.269 827.39C479.917 832.64 479.917 832.64 477.394 832.64C477.394 833.135 477.394 833.63 477.394 834.14C476.883 834.422 476.372 834.704 475.845 834.994C466.052 840.399 456.285 845.844 446.597 851.437C445.81 851.891 445.023 852.346 444.212 852.814C438.557 856.089 432.935 859.415 427.373 862.845C417.216 869.096 407.408 874.444 395.644 876.89C394.832 877.06 394.832 877.06 394.004 877.233C392.54 877.469 391.126 877.574 389.644 877.64C388.857 877.687 388.07 877.735 387.26 877.784C374.529 878.201 363.883 874.84 352.894 868.64C352.051 868.176 351.208 867.712 350.34 867.234C344.467 863.941 338.714 860.443 332.949 856.967C328.389 854.222 323.792 851.558 319.162 848.935C316.533 847.434 313.944 845.874 311.354 844.306C309.017 842.915 306.652 841.574 304.285 840.234C300.027 837.821 295.854 835.292 291.714 832.681C288.882 830.983 285.997 829.41 283.094 827.838C279.509 825.886 275.961 823.871 272.41 821.859C271.656 821.432 270.902 821.005 270.125 820.565C268.634 819.72 267.143 818.875 265.652 818.029C263.965 817.072 262.277 816.116 260.589 815.161C256.367 812.764 252.184 810.316 248.035 807.796C242.904 804.681 237.671 801.76 232.426 798.843C225.978 795.255 219.635 791.579 213.394 787.64C209.69 785.363 205.964 783.159 202.136 781.098C197.418 778.534 192.772 775.851 188.129 773.156C182.617 769.964 177.1 766.785 171.535 763.687C167.245 761.297 163.06 758.781 158.911 756.155C156.138 754.486 153.313 752.94 150.467 751.4C146.672 749.342 142.894 747.251 139.117 745.159C138.223 744.664 137.328 744.169 136.432 743.676C135.112 742.947 133.793 742.217 132.473 741.486C131.701 741.059 130.929 740.632 130.133 740.192C127.819 738.846 125.62 737.375 123.394 735.89C122.125 735.165 120.846 734.457 119.556 733.769C106.541 726.758 93.655 719.485 81.0251 711.799C75.0645 708.178 69.0204 704.734 62.9255 701.343C55.6889 697.315 48.5033 693.263 41.6414 688.614C39.6203 687.288 37.5995 686.144 35.4568 685.031C21.1593 677.292 8.64324 665.625 3.37319 649.918C0.284141 639.204 0.0685806 628.405 0.103519 617.342C0.100383 615.709 0.0962889 614.075 0.0912965 612.442C0.0805217 607.989 0.0835917 603.536 0.089145 599.083C0.0927084 594.267 0.0833077 589.451 0.075641 584.635C0.063076 575.759 0.061677 566.882 0.0653871 558.005C0.0688131 549.804 0.0683525 541.603 0.0640138 533.401C0.0634462 532.299 0.0628864 531.196 0.0623201 530.093C0.0614611 528.431 0.0605839 526.77 0.0597108 525.108C0.0516905 509.672 0.0481465 494.236 0.0540804 478.8C0.0543032 478.219 0.0544916 477.638 0.0547212 477.04C0.0565577 472.322 0.0585212 467.605 0.060489 462.888C0.068068 444.483 0.0617995 426.078 0.0443758 407.673C0.0248053 386.967 0.015199 366.261 0.0205263 345.555C0.0210633 343.346 0.0215494 341.137 0.0220369 338.928C0.0221643 338.384 0.0223177 337.84 0.0224489 337.28C0.024173 329.085 0.0182139 320.89 0.00834976 312.695C-0.00285096 303.373 -0.0032053 294.052 0.00986038 284.73C0.0162404 279.977 0.0178703 275.224 0.00638138 270.471C-0.00401782 266.115 -0.000402242 261.759 0.0140718 257.403C0.0168876 255.833 0.0147344 254.262 0.00688492 252.692C-0.0799319 233.983 4.39244 217.563 17.4685 203.498C23.3432 197.86 30.0829 193.909 37.1707 190.036C40.6769 188.116 44.0612 186.024 47.4509 183.905C53.4484 180.187 59.5362 176.652 65.6912 173.202C71.5501 169.907 77.3718 166.559 83.1534 163.13C86.5739 161.106 90.0385 159.188 93.5408 157.309C96.1555 155.856 98.7109 154.315 101.269 152.765C105.827 150.006 110.447 147.406 115.144 144.89C120.756 141.879 126.27 138.733 131.738 135.468C136.147 132.839 140.566 130.246 145.063 127.77C147.586 126.366 150.067 124.894 152.551 123.421C157.223 120.66 161.912 117.929 166.613 115.218C171.49 112.404 176.341 109.55 181.158 106.634C185.987 103.713 190.907 100.959 195.826 98.1924C203.641 93.7919 211.414 89.3245 219.144 84.7746C223.352 82.304 227.592 79.9335 231.917 77.671C233.528 76.7092 234.617 75.7441 235.894 74.39C237.327 73.6722 237.327 73.6722 238.941 73.0306C242.912 71.3409 246.484 69.1608 250.144 66.89C254.655 64.1349 259.213 61.5201 263.864 59.0091C266.407 57.6071 268.885 56.1094 271.367 54.6028C274.103 52.9657 276.876 51.3953 279.649 49.8203C283.179 47.8102 286.68 45.7546 290.176 43.6868C294.91 40.888 299.682 38.1654 304.484 35.4833C307.887 33.5782 311.244 31.6085 314.58 29.5862C318.054 27.485 321.597 25.5267 325.165 23.5921C328.75 21.6383 332.308 19.6404 335.857 17.6196C341.861 14.1996 347.878 10.8035 353.972 7.54621C354.709 7.1484 354.709 7.1484 355.46 6.74256C366.194 1.06434 377.624 -0.519377 389.644 0.139956Z" fill="#040504"/>
</svg>
